<?xml version="1.0" encoding="UTF-8"?><svg id="Layer_1" xmlns="http://www.w3.org/2000/svg" viewBox="0 0 192.06 212.6"><defs><style>.cls-1{fill:#1d1d1b;stroke-width:0px;}</style></defs><path class="cls-1" d="M132.5,44.74h-6.91c-1.59,0-1.95,1.59-.89,2.48,1.77,1.24,2.3,2.83,2.3,6.55v63.41l-55.44-72.45h-26.04c-1.59,0-1.95,1.59-.71,2.48,1.59,1.24,2.3,2.83,2.3,6.55v93.88c0,3.54-.71,5.14-2.3,6.2-1.24.89-.71,2.66.71,2.66h6.91c1.59,0,1.95-1.77.89-2.66-1.77-1.24-2.3-2.66-2.3-6.38V57.85c13.64,17.54,74.22,98.66,74.22,98.66h5.67V53.42c.18-3.54.71-4.96,2.3-6.2,1.24-.89.89-2.48-.71-2.48Z"/><path class="cls-1" d="M150.28,20.69C110.51-9.21,54.8-6.53,18.51,27.61,11.29,34.41,5.12,42.28.22,50.83c-.43.76-.2,1.73.55,2.2.76.48,1.77.25,2.26-.51C31.79,6.47,93.97-6.75,138.47,24.6c37.97,26.47,50.8,77.65,29.03,118.6-20.71,39.25-66.4,56.81-106.69,43.54-.16-8.45-4.54-16.63-12.32-21.3-12.02-7.22-27.63-3.33-34.85,8.69-7.22,12.02-3.33,27.63,8.69,34.85,9.55,5.73,21.34,4.46,29.42-2.32,50.08,15.6,106.34-6.86,129.94-56.32,21.62-44.86,8.56-99.83-31.42-129.63Z"/></svg>