<?xml version="1.0" encoding="UTF-8"?><svg id="Layer_1" xmlns="http://www.w3.org/2000/svg" viewBox="0 0 417.6 212.6"><defs><style>.cls-1{fill:#fff;stroke-width:0px;}</style></defs><path class="cls-1" d="M60.37,54.92h-4.72c-1.09,0-1.33,1.09-.6,1.69,1.21.85,1.57,1.93,1.57,4.47v43.29L18.77,54.92H.99c-1.09,0-1.33,1.09-.48,1.69,1.09.85,1.57,1.93,1.57,4.47v64.09c0,2.42-.48,3.51-1.57,4.23-.85.6-.48,1.81.48,1.81h4.72c1.09,0,1.33-1.21.6-1.81-1.21-.85-1.57-1.81-1.57-4.35v-61.19c9.31,11.97,50.67,67.36,50.67,67.36h3.87V60.84c.12-2.42.48-3.39,1.57-4.23.85-.6.6-1.69-.48-1.69Z"/><path class="cls-1" d="M120.23,124.7c-.6,0-.73-.36-.73-.73v-42.69c0-2.54.48-3.51,1.57-4.35.85-.6.48-1.69-.6-1.69h-17.9c-1.09,0-1.33,1.09-.6,1.69,1.21.85,1.57,1.81,1.57,4.35v35.8c0,4.47-3.14,7.98-7.98,7.98-5.44,0-8.1-4.23-8.1-8.95v-34.71c0-2.66.36-3.63,1.57-4.47.73-.6.48-1.69-.6-1.69h-18.02c-1.09,0-1.33,1.09-.48,1.69,1.09.85,1.57,1.81,1.57,4.47v37.37c0,6.29,5.8,12.82,16.33,12.82,12.09,0,15.72-7.74,15.72-7.74v4.84c0,.97.6,2.18,2.3,1.81,4.11-.6,13.42-2.54,14.87-3.27,1.45-.6.97-2.78-.48-2.54Z"/><path class="cls-1" d="M178.52,119.38c-2.78,3.02-5.8,5.08-10.76,5.08-7.62,0-16.93-6.65-22.13-21.53-3.14-8.95-3.02-22.01,3.87-25.15,1.21-.6,2.42-.85,3.75-.85,6.77,0,13.54,7.26,12.09,13.54-.24,1.21.24,2.54,1.57,2.66,7.38.85,12.58-4.11,10.76-8.59-2.54-5.93-9.19-10.4-21.04-10.4-16.2,0-27.81,12.09-27.81,28.78s10.64,27.81,26.97,28.66c12.34.6,20.2-5.8,23.82-11.25.36-.73-.73-1.33-1.09-.97Z"/><path class="cls-1" d="M205.12,128.81c-1.09-.85-1.57-1.81-1.57-4.35V55.64c0-.97-.73-1.81-2.42-1.09-3.39,1.33-13.18,5.68-14.75,6.41-1.45.73-.97,2.78.48,2.66.85-.12.73.73.73,1.21v59.74c0,2.42-.36,3.39-1.57,4.23-.73.6-.48,1.69.6,1.69h18.02c1.09,0,1.33-1.09.48-1.69Z"/><path class="cls-1" d="M263.53,120.95c.6-1.09-.85-1.93-1.45-1.21-1.45,2.06-4.35,4.96-9.31,4.96-9.19,0-15.36-7.74-15.36-7.74-5.68-10.28,25.76-4.6,25.76-25.27,0-9.07-8.47-17.54-22.98-17.54-8.22,0-15.24,3.02-20.32,8.59-4.84,5.44-7.38,12.82-7.13,20.92.6,16.93,11.25,27.94,27.21,27.94,11.97,0,20.68-5.2,23.58-10.64ZM238.26,76.93c7.01,0,10.88,5.32,10.4,12.82-.73,13.18-12.34,14.51-14.51,23.22-7.74-7.14-10.64-36.04,4.11-36.04Z"/><path class="cls-1" d="M290.14,76.93c.73-.6.48-1.69-.6-1.69h-18.02c-1.09,0-1.33,1.09-.48,1.69,1.09.85,1.57,1.81,1.57,4.47v37.37c0,6.29,5.8,12.82,16.33,12.82,12.09,0,15.72-7.74,15.72-7.74v4.84c0,.97.6,2.18,2.3,1.81,4.11-.6,13.42-2.54,14.87-3.27,1.45-.6.97-2.78-.48-2.54-.6,0-.73-.36-.73-.73v-42.69c0-2.54.48-3.51,1.57-4.35.85-.6.48-1.69-.6-1.69h-17.9c-1.09,0-1.33,1.09-.6,1.69,1.21.85,1.57,1.81,1.57,4.35v35.8c0,4.47-3.14,7.98-7.98,7.98-5.44,0-8.1-4.23-8.1-8.95v-34.71c0-2.66.36-3.63,1.57-4.47Z"/><path class="cls-1" d="M336.94,108.98c-3.87,1.21-8.59,5.56-6.53,10.28,2.42,5.56,11,12.34,24.79,12.34s19.11-6.17,20.44-11.97c1.81-7.86-3.75-13.18-7.5-15.6-4.11-2.66-14.51-9.43-19.35-12.7-7.5-4.84-7.01-11-4.11-14.03.85-.97,2.54-1.33,4.35-1.33,6.29,0,15.84,4.84,15.84,14.15,0,1.33,1.09,1.93,2.42,1.21,2.18-1.33,9.55-6.65,4.72-11-3.27-2.78-10.04-6.41-20.2-6.41-8.59,0-16.57,3.39-19.59,10.76-3.51,8.47,2.9,15.72,6.65,18.26,4.47,2.9,12.34,8.47,18.38,12.58,7.62,5.2,7.74,14.39-.48,14.39-12.09,0-19.95-15.72-17.66-19.35.48-.73-.36-2.06-2.18-1.57Z"/><path class="cls-1" d="M375.83,20.69c-39.77-29.9-95.48-27.22-131.77,6.92-7.22,6.8-13.39,14.67-18.29,23.22-.43.76-.2,1.73.55,2.2.76.48,1.77.25,2.26-.51,28.77-46.04,90.95-59.27,135.46-27.92,37.97,26.47,50.8,77.65,29.03,118.6-20.71,39.25-66.4,56.81-106.69,43.54-.16-8.45-4.54-16.63-12.32-21.3-12.02-7.22-27.63-3.33-34.85,8.69-7.22,12.02-3.33,27.63,8.69,34.85,9.55,5.73,21.34,4.46,29.42-2.32,50.08,15.6,106.34-6.86,129.94-56.32,21.62-44.86,8.56-99.83-31.42-129.63Z"/></svg>